<?xml version="1.0" standalone="no"?>
<svg
  width="600"
  height="600"
  viewBox="0 0 600 600"
  xmlns="http://www.w3.org/2000/svg"
>
  <g transform="translate(300,300)">
    <path d="M113.1,-137.3C145.4,-132.1,169.7,-97.6,161.9,-65.8C154.1,-34,114.1,-4.9,103.6,35.6C93.1,76.2,112.1,128.3,99.7,172.8C87.4,217.3,43.7,254.1,10.6,239.6C-22.5,225,-45.1,159,-88.3,124.6C-131.6,90.1,-195.6,87.3,-224,58.9C-252.3,30.5,-245.1,-23.4,-221.5,-64.5C-197.9,-105.7,-158,-134.2,-118.4,-137C-78.8,-139.7,-39.4,-116.9,0.5,-117.5C40.4,-118.2,80.7,-142.4,113.1,-137.3Z" fill="#332531" />
  </g>
</svg>
  