<?xml version="1.0" standalone="no"?>
<svg
  width="600"
  height="600"
  viewBox="0 0 600 600"
  xmlns="http://www.w3.org/2000/svg"
>
  <g transform="translate(300,300)">
    <path d="M116.2,-148C148.9,-111.1,172.4,-72.8,173.9,-35C175.4,2.8,154.8,40.1,134.3,79.3C113.8,118.4,93.3,159.3,57.4,183.6C21.4,208,-30,215.8,-67,196.8C-103.9,177.8,-126.4,131.9,-147.5,88.5C-168.6,45.1,-188.2,4.2,-194.6,-47.4C-201.1,-99,-194.4,-161.3,-159.8,-197.9C-125.1,-234.5,-62.6,-245.2,-10.4,-232.8C41.8,-220.5,83.6,-184.9,116.2,-148Z" fill="#332531" />
  </g>
</svg>
  